<svg xmlns="http://www.w3.org/2000/svg" width="1600" height="800" viewBox="0 0 1600 800" preserveAspectRatio="xMidYMid slice">
  <!-- Background gradient -->
  <defs>
    <linearGradient id="bg-gradient" x1="0%" y1="0%" x2="100%" y2="100%">
      <stop offset="0%" stop-color="#0d47a1" stop-opacity="0.8"/>
      <stop offset="100%" stop-color="#1565c0" stop-opacity="0.6"/>
    </linearGradient>
    
    <!-- Cable pattern -->
    <pattern id="cable-pattern" x="0" y="0" width="100" height="100" patternUnits="userSpaceOnUse">
      <path d="M0,50 C20,30 30,70 50,50 C70,30 80,70 100,50" stroke="#ffffff" stroke-width="2" fill="none" stroke-opacity="0.1"/>
      <path d="M0,20 C20,0 30,40 50,20 C70,0 80,40 100,20" stroke="#ffffff" stroke-width="2" fill="none" stroke-opacity="0.1"/>
      <path d="M0,80 C20,60 30,100 50,80 C70,60 80,100 100,80" stroke="#ffffff" stroke-width="2" fill="none" stroke-opacity="0.1"/>
    </pattern>
  </defs>
  
  <!-- Main background -->
  <rect width="1600" height="800" fill="url(#bg-gradient)"/>
  
  <!-- Cable pattern overlay -->
  <rect width="1600" height="800" fill="url(#cable-pattern)"/>
  
  <!-- Abstract cable elements -->
  <g opacity="0.2">
    <!-- Submersible cable illustration -->
    <circle cx="1400" cy="200" r="80" fill="#388e3c"/>
    
    <!-- FIREX cable illustration -->
    <rect x="100" y="600" width="200" height="100" rx="20" ry="20" fill="#c62828"/>
    
    <!-- EARTHX cable illustration -->
    <circle cx="200" cy="200" r="100" fill="#dd2c00"/>
    
    <!-- THERMO cable illustration -->
    <rect x="1200" y="600" width="150" height="80" rx="10" ry="10" fill="#f9a825"/>
    
    <!-- UNI cable illustration -->
    <rect x="600" y="100" width="120" height="60" rx="10" ry="10" fill="#0d47a1"/>
    
    <!-- TURBO cable illustration -->
    <rect x="850" y="650" width="180" height="90" rx="10" ry="10" fill="#e65100"/>
    
    <!-- ZERO cable illustration -->
    <circle cx="500" cy="450" r="90" fill="#2e7d32"/>
  </g>
  
  <!-- Wire elements -->
  <path d="M0,300 C200,200 400,400 600,300 C800,200 1000,400 1200,300 C1400,200 1600,300 1600,300" stroke="#ffffff" stroke-width="3" fill="none" stroke-opacity="0.2"/>
  
  <path d="M0,500 C200,600 400,400 600,500 C800,600 1000,400 1200,500 C1400,600 1600,500 1600,500" stroke="#ffffff" stroke-width="3" fill="none" stroke-opacity="0.2"/>
  
  <!-- Electricity symbols -->
  <g stroke="#ffffff" stroke-width="2" stroke-opacity="0.3" fill="none">
    <path d="M300,350 L320,320 L340,350 L360,320"/>
    <path d="M900,450 L920,420 L940,450 L960,420"/>
    <path d="M1300,250 L1320,220 L1340,250 L1360,220"/>
    <path d="M500,650 L520,620 L540,650 L560,620"/>
  </g>
</svg>
